<svg height="512pt" viewBox="0 0 512 512" width="512pt" xmlns="http://www.w3.org/2000/svg"><path d="m512 256c0 141.386719-114.613281 256-256 256s-256-114.613281-256-256 114.613281-256 256-256 256 114.613281 256 256zm0 0" fill="#ff0335"/><path d="m511.765625 266.566406-212.398437-212.402344-9.714844 9.699219c1.574218 1.605469 14.3125 15.464844 2.117187 31.441407l-42.953125-41.136719-9.6875 9.722656c.636719.632813 14.699219 15.015625 2 31.527344l-42.859375-41.253907-9.714843 9.699219c1.660156 1.695313 15.785156 17.050781-.152344 34.132813-7.039063 7.550781-10.140625 15.71875-9.210938 24.277344 1.011719 9.328124 6.769532 16.734374 11.257813 21.195312l25.316406 25.121094h-95.1875v104.203125c0 26.28125 10.835937 50.027343 28.273437 67.035156l25.566407 25.378906v19.09375h-94.160157v25.867188l85.429688 85.425781c28.085938 10.59375 58.519531 16.40625 90.3125 16.40625 137.84375 0 250.222656-108.949219 255.765625-245.433594zm0 0" fill="#901"/><path d="m371.5 196.445312c-5.097656 0-10.042969.640626-14.773438 1.835938v24.304688c4.53125-1.96875 9.527344-3.066407 14.773438-3.066407 20.492188 0 37.167969 16.671875 37.167969 37.167969s-16.675781 37.167969-37.167969 37.167969c-6.011719 0-11.691406-1.441407-16.722656-3.988281-1.558594 7.722656-4.027344 15.109374-7.285156 22.058593 7.363281 3.210938 15.476562 5.003907 24.007812 5.003907 33.214844 0 60.242188-27.023438 60.242188-60.242188s-27.023438-60.242188-60.242188-60.242188zm0 0" fill="#ffe047"/><path d="m174.417969 354.757812h135.640625v35.65625h-135.640625zm0 0" fill="#fff5cb"/><path d="m246.339844 354.757812h63.71875v35.660157h-63.71875zm0 0" fill="#ffe670"/><path d="m270.226562 366.457031h-55.980468c-51.730469 0-93.667969-41.933593-93.667969-93.667969v-104.199218h243.316406v104.199218c0 51.734376-41.933593 93.667969-93.667969 93.667969zm0 0" fill="#fff"/><path d="m363.898438 168.585938v104.199218c0 37.492188-22.019532 69.84375-53.839844 84.800782-12.078125 5.691406-25.578125 8.871093-39.828125 8.871093h-23.890625v-197.871093zm0 0" fill="#fff5cb"/><path d="m80.257812 384.296875h351.484376v25.867187h-351.484376zm0 0" fill="#fff"/><path d="m246.339844 384.296875h185.398437v25.871094h-185.398437zm0 0" fill="#fff5cb"/><path d="m195.925781 148.148438c-.617187-.421876-15.074219-10.566407-16.734375-25.875-.925781-8.558594 2.171875-16.726563 9.214844-24.277344 15.933594-17.082032 1.808594-32.4375.148438-34.132813l9.714843-9.695312c.660157.65625 6.53125 6.691406 9.59375 16.074219 2.976563 9.128906 3.761719 22.984374-9.421875 37.117187-4.253906 4.566406-6.089844 8.960937-5.601562 13.4375.972656 8.984375 10.78125 15.988281 10.882812 16.054687zm0 0" fill="#fff"/><path d="m246.472656 148.148438c-.613281-.421876-15.074218-10.566407-16.730468-25.875-.929688-8.558594 2.171874-16.726563 9.210937-24.277344 16.386719-17.566406.84375-33.4375.175781-34.105469l9.6875-9.722656c.660156.65625 6.535156 6.691406 9.59375 16.074219 2.980469 9.128906 3.765625 22.984374-9.417968 37.117187-4.257813 4.566406-6.089844 8.960937-5.605469 13.4375.972656 8.984375 10.785156 15.988281 10.882812 16.054687zm0 0" fill="#fff"/><g fill="#fff5cb"><path d="m248.988281 107.355469c-1.027343 1.101562-1.910156 2.203125-2.648437 3.28125v-27.621094c.128906-1.328125.121094-2.609375 0-3.828125v-22.53125l2.480468-2.488281c.660157.660156 6.53125 6.6875 9.589844 16.070312 2.980469 9.140625 3.769532 22.988281-9.421875 37.117188zm0 0"/><path d="m254.269531 136.855469-7.800781 11.292969c-.019531-.019532-.070312-.050782-.128906-.089844v-19.550782c3.21875 4.980469 7.859375 8.300782 7.929687 8.347657zm0 0"/><path d="m297.023438 148.148438c-.617188-.421876-15.074219-10.566407-16.734376-25.875-.925781-8.558594 2.171876-16.726563 9.214844-24.277344 15.933594-17.082032 1.808594-32.4375.148438-34.132813l9.714844-9.695312c.660156.65625 6.53125 6.691406 9.59375 16.074219 2.976562 9.128906 3.761718 22.984374-9.421876 37.117187-4.238281 4.546875-6.074218 8.925781-5.609374 13.382813.785156 7.496093 8.144531 14.179687 10.914062 16.125zm0 0"/></g></svg>