<svg height="512pt" viewBox="0 0 512 512" width="512pt" xmlns="http://www.w3.org/2000/svg"><path d="m512 256c0 141.386719-114.613281 256-256 256s-256-114.613281-256-256 114.613281-256 256-256 256 114.613281 256 256zm0 0" fill="#ffb74f"/><path d="m512 256c0-17.585938-1.777344-34.757812-5.152344-51.347656l-60.648437-60.644532c-15.0625 0-27.273438 12.214844-27.273438 27.277344v34.105469l-53.191406-53.152344c-27.53125-29.105469-66.507813-47.269531-109.734375-47.269531-53.324219 0-100.183594 27.640625-127.058594 69.367188l-30.554687-30.328126h-9.277344v7.585938l-8.445313-7.585938h-9.445312v7.585938l-8.445312-7.585938h-9.277344v40.222657c0 6.273437 2.613281 11.960937 6.800781 16.039062l7.199219 7.082031v45.445313h-8.308594v102.359375c0 3.691406 1.558594 7.007812 4.054688 9.347656l142.296874 142.511719c16.316407 3.261719 33.1875 4.984375 50.460938 4.984375 141.386719 0 256-114.613281 256-256zm0 0" fill="#ff8900"/><path d="m407.03125 256c0 83.414062-67.617188 151.03125-151.03125 151.03125s-151.03125-67.617188-151.03125-151.03125 67.617188-151.03125 151.03125-151.03125 151.03125 67.617188 151.03125 151.03125zm0 0" fill="#fff"/><path d="m407.03125 256c0 83.410156-67.621094 151.03125-151.03125 151.03125v-302.0625c83.410156 0 151.03125 67.621094 151.03125 151.03125zm0 0" fill="#fff5cb"/><path d="m353.539062 256c0 53.871094-43.667968 97.539062-97.539062 97.539062s-97.539062-43.667968-97.539062-97.539062 43.667968-97.539062 97.539062-97.539062 97.539062 43.667968 97.539062 97.539062zm0 0" fill="#fff5cb"/><path d="m353.539062 256c0 53.871094-43.667968 97.539062-97.539062 97.539062v-195.078124c53.871094 0 97.539062 43.667968 97.539062 97.539062zm0 0" fill="#ffe670"/><path d="m89.109375 144.007812v32.335938c0 2.320312-1.898437 4.21875-4.222656 4.21875-2.320313 0-4.222657-1.898438-4.222657-4.21875v-32.335938h-9.445312v32.335938c0 2.320312-1.898438 4.21875-4.222656 4.21875-2.320313 0-4.21875-1.898438-4.21875-4.21875v-32.335938h-9.28125v40.222657c0 9.363281 5.8125 17.425781 14 20.78125v74.109375h16.890625v-74.109375c8.191406-3.355469 14-11.417969 14-20.78125v-40.222657zm0 0" fill="#fff"/><path d="m77.867188 367.992188h-5.847657c-7.085937 0-12.832031-5.746094-12.832031-12.835938v-102.359375h31.511719v102.359375c0 7.089844-5.746094 12.835938-12.832031 12.835938zm0 0" fill="#00dfc1"/><path d="m446.199219 144.007812c-15.0625 0-27.273438 12.210938-27.273438 27.277344v66.636719h12.28125v28.96875h14.992188zm0 0" fill="#fff5cb"/><path d="m435.652344 367.992188h5.847656c7.089844 0 12.832031-5.746094 12.832031-12.835938v-102.359375h-31.511719v102.359375c0 7.089844 5.746094 12.835938 12.832032 12.835938zm0 0" fill="#00ad95"/></svg>