<svg height="512pt" viewBox="0 0 512 512" width="512pt" xmlns="http://www.w3.org/2000/svg"><path d="m462 512h-402c-33.085938 0-60-26.914062-60-60v-368h165c24.8125 0 45 20.1875 45 45v11h252zm0 0" fill="#ffab2d"/><path d="m276 140h186v372h-186zm0 0" fill="#f90"/><path d="m412 230h-272v-230h207c35.839844 0 65 29.160156 65 65zm0 0" fill="#b7e4f8"/><path d="m347 0h-71v230h136v-165c0-35.839844-29.160156-65-65-65zm0 0" fill="#6fc8f1"/><path d="m452 512h-392c16.542969 0 30-13.457031 30-30v-282h422v252c0 33.085938-26.914062 60-60 60zm0 0" fill="#ffe565"/><path d="m412 70h-70v-70h5c35.839844 0 65 29.160156 65 65zm0 0" fill="#388cb3"/><path d="m512 452v-252h-236v282c0 16.542969-13.457031 30-30 30h206c33.085938 0 60-26.914062 60-60zm0 0" fill="#ffd400"/><path d="m337.324219 448.839844-61.324219-32.238282-61.324219 32.238282 11.710938-68.285156-49.609375-48.359376 68.5625-9.960937 30.660156-62.128906 30.660156 62.128906 68.5625 9.960937-49.609375 48.359376zm0 0" fill="#ffb234"/><path d="m337.324219 448.839844-11.714844-68.285156 49.613281-48.359376-68.5625-9.960937-30.660156-62.128906v156.496093zm0 0" fill="#ff9f01"/></svg>