<svg height="512pt" viewBox="0 0 512 512" width="512pt" xmlns="http://www.w3.org/2000/svg"><path d="m512 256c0 141.386719-114.613281 256-256 256s-256-114.613281-256-256 114.613281-256 256-256 256 114.613281 256 256zm0 0" fill="#00dfc1"/><path d="m512 256c0-20.769531-2.492188-40.953125-7.160156-60.285156-43.28125-43.3125-94.25-94.304688-94.25-94.304688-53.503906-53.5-140.246094-53.5-193.75 0-48.65625 48.660156-53.054688 124.808594-13.207032 178.445313l-21.90625 21.90625-6.054687-6.050781-91.570313 91.570312 119.300782 119.296875c16.976562 3.546875 34.566406 5.421875 52.597656 5.421875 141.386719 0 256-114.613281 256-256zm0 0" fill="#00ad95"/><path d="m211.777344 271.707031 28.511718 28.511719-33.941406 33.941406-28.511718-28.511718zm0 0" fill="#fff"/><path d="m192.089844 319.90625 33.941406-33.941406 14.253906 14.253906-33.941406 33.941406zm0 0" fill="#fff5cb"/><path d="m410.585938 101.414062c-53.503907-53.503906-140.246094-53.503906-193.746094 0-53.503906 53.5-53.503906 140.242188 0 193.746094 53.5 53.5 140.242187 53.5 193.746094 0 53.5-53.503906 53.5-140.246094 0-193.746094zm0 0" fill="#715539"/><path d="m410.589844 295.160156c-48.65625 48.65625-124.820313 53.058594-178.445313 13.207032-5.347656-3.960938-10.460937-8.363282-15.304687-13.207032l193.75-193.75c53.5 53.5 53.5 140.25 0 193.75zm0 0" fill="#5a422d"/><path d="m397.855469 114.140625c-46.472657-46.472656-121.816407-46.472656-168.289063 0s-46.472656 121.816406 0 168.289063c46.472656 46.472656 121.816406 46.472656 168.289063 0 46.472656-46.472657 46.472656-121.816407 0-168.289063zm0 0" fill="#b38a65"/><path d="m397.859375 282.429688c-46.46875 46.472656-121.820313 46.472656-168.289063 0l168.289063-168.289063c46.472656 46.46875 46.472656 121.820313 0 168.289063zm0 0" fill="#8a6746"/><path d="m175.675781 295.707031 40.617188 40.617188-91.570313 91.570312-40.617187-40.617187zm0 0" fill="#715539"/><path d="m104.410156 407.585938 91.566406-91.570313 20.308594 20.308594-91.566406 91.570312zm0 0" fill="#5a422d"/><path d="m383.511719 269.699219c12.484375-12.484375 16.886719-29.992188 13.203125-46.015625-3.121094-13.597656-2.453125-27.710938 1.285156-41.152344 5.085938-18.28125.445312-38.695312-13.929688-53.070312-14.246093-14.25-34.429687-18.933594-52.585937-14.0625-12.734375 3.417968-26.050781 4.484374-39.015625 2.066406-20.816406-3.878906-43.195312 2.675781-58.730469 19.675781-21.703125 23.753906-22.097656 60.523437-.894531 84.722656.144531.167969.292969.332031.4375.496094 8.933594 9.992187 15.476562 21.847656 19.191406 34.726563 2.019532 7.007812 5.792969 13.617187 11.316406 19.140624 12.160157 12.164063 29.597657 15.835938 44.945313 11.023438 11.199219-3.511719 23.066406-4.574219 34.742187-3.359375 14.285157 1.484375 29.089844-3.242187 40.035157-14.191406zm0 0" fill="#fff"/><path d="m383.511719 269.695312c-10.953125 10.953126-25.75 15.683594-40.035157 14.199219-11.679687-1.214843-23.539062-.164062-34.738281 3.359375-15.351562 4.816406-32.789062 1.136719-44.953125-11.023437-5.035156-5.035157-8.605468-10.96875-10.71875-17.296875l130.226563-130.226563c.269531.238281.523437.492188.777343.75 14.375 14.375 19.015626 34.796875 13.933594 53.074219-3.742187 13.441406-4.40625 27.554688-1.289062 41.152344 3.675781 16.023437-.722656 33.53125-13.203125 46.011718zm0 0" fill="#fff5cb"/><path d="m340.972656 167.449219c-15.945312-15.945313-41.796875-15.945313-57.746094 0-15.945312 15.945312-15.945312 41.800781 0 57.746093 15.949219 15.945313 41.800782 15.945313 57.746094 0 15.949219-15.945312 15.949219-41.800781 0-57.746093zm0 0" fill="#ffcf00"/><path d="m340.980469 225.195312c-15.34375 15.34375-39.875 15.917969-55.902344 1.726563l57.628906-57.628906c14.191407 16.03125 13.617188 40.558593-1.726562 55.902343zm0 0" fill="#ff9a00"/></svg>