<?xml version="1.0" encoding="iso-8859-1"?>
<!-- Generator: Adobe Illustrator 19.0.0, SVG Export Plug-In . SVG Version: 6.00 Build 0)  -->
<svg version="1.1" id="Layer_1" xmlns="http://www.w3.org/2000/svg" xmlns:xlink="http://www.w3.org/1999/xlink" x="0px" y="0px"
	 viewBox="0 0 512 512" style="enable-background:new 0 0 512 512;" xml:space="preserve">
<path style="fill:#CF8F3D;" d="M256.016,0C114.616,0,0,114.616,0,256s114.616,256,256.016,256C397.394,512,512,397.384,512,256
	S397.394,0,256.016,0z M256.003,329.907c-40.822,0-73.911-33.09-73.911-73.907s33.09-73.907,73.911-73.907
	c40.816,0,73.903,33.09,73.903,73.907S296.819,329.907,256.003,329.907z"/>
<path style="fill:#9A1F2A;" d="M256.012,44.522C139.204,44.522,44.522,139.204,44.522,256s94.682,211.478,211.491,211.478
	c116.792,0,211.466-94.682,211.466-211.478S372.804,44.522,256.012,44.522z M256,356.174c-55.325,0-100.174-44.849-100.174-100.174
	S200.675,155.826,256,155.826S356.174,200.675,356.174,256S311.325,356.174,256,356.174z"/>
<path style="fill:#FFD63E;" d="M422.985,176.549l-34.37,25.406c-1.592,1.176-3.447,1.744-5.286,1.744
	c-2.728,0-5.422-1.25-7.167-3.612c-2.923-3.955-2.087-9.53,1.868-12.453l34.37-25.406c3.955-2.923,9.531-2.087,12.453,1.868
	C427.777,168.051,426.941,173.626,422.985,176.549z M240.22,387.287c-4.747-1.283-9.636,1.529-10.917,6.276l-11.136,41.264
	c-1.281,4.748,1.529,9.636,6.276,10.917c0.777,0.209,1.557,0.309,2.325,0.309c3.926,0,7.52-2.616,8.592-6.586l11.136-41.264
	C247.779,393.456,244.969,388.568,240.22,387.287z M237.901,88.046h-42.736c-4.917,0-8.904,3.987-8.904,8.904
	s3.987,8.904,8.904,8.904h42.736c4.917,0,8.904-3.987,8.904-8.904S242.818,88.046,237.901,88.046z"/>
<path style="fill:#FF4328;" d="M435.44,331.194c-1.756,1.916-4.157,2.887-6.566,2.887c-2.15,0-4.305-0.774-6.015-2.341
	l-31.506-28.879c-3.625-3.324-3.87-8.956-0.548-12.581c3.322-3.626,8.954-3.87,12.581-0.548l31.506,28.879
	C438.518,321.936,438.763,327.569,435.44,331.194z M158.358,369.041l-39.098-17.263c-4.5-1.987-9.757,0.05-11.743,4.549
	c-1.987,4.499,0.05,9.756,4.549,11.743l39.098,17.263c1.17,0.516,2.39,0.761,3.592,0.761c3.419,0,6.68-1.981,8.151-5.31
	C164.894,376.284,162.857,371.027,158.358,369.041z M137.573,186.927c3.419,0,6.68-1.981,8.151-5.31
	c1.987-4.499-0.05-9.756-4.549-11.743l-39.095-17.263c-4.499-1.988-9.756,0.05-11.743,4.549s0.05,9.756,4.549,11.743l39.095,17.263
	C135.151,186.682,136.371,186.927,137.573,186.927z"/>
<path style="fill:#78A097;" d="M370.415,395.881c0,4.917-3.987,8.904-8.904,8.904h-42.74c-4.917,0-8.904-3.987-8.904-8.904
	s3.987-8.904,8.904-8.904h42.74C366.429,386.976,370.415,390.963,370.415,395.881z M329.661,120.055
	c1.549,3.147,4.709,4.973,7.995,4.973c1.321,0,2.662-0.295,3.927-0.917c4.412-2.172,6.227-7.51,4.056-11.922l-18.877-38.343
	c-2.173-4.412-7.511-6.227-11.922-4.056c-4.412,2.173-6.227,7.51-4.056,11.922L329.661,120.055z M100.115,250.942l-30.07,30.372
	c-3.459,3.495-3.432,9.133,0.063,12.593c1.736,1.719,4,2.577,6.264,2.577c2.294,0,4.587-0.88,6.328-2.639l30.07-30.372
	c3.459-3.495,3.432-9.133-0.063-12.593C109.213,247.42,103.575,247.447,100.115,250.942z"/>
<g>
</g>
<g>
</g>
<g>
</g>
<g>
</g>
<g>
</g>
<g>
</g>
<g>
</g>
<g>
</g>
<g>
</g>
<g>
</g>
<g>
</g>
<g>
</g>
<g>
</g>
<g>
</g>
<g>
</g>
</svg>
