<svg height="512pt" viewBox="0 0 512 512" width="512pt" xmlns="http://www.w3.org/2000/svg"><path d="m512 256c0 141.386719-114.613281 256-256 256s-256-114.613281-256-256 114.613281-256 256-256 256 114.613281 256 256zm0 0" fill="#ff0335"/><path d="m512 256c0-9.25-.503906-18.382812-1.460938-27.378906l-128.96875-128.972656c-23.542968-26.003907-68.207031-40.648438-125.570312-40.648438-65.542969 0-114.503906 19.117188-134.328125 52.453125-14.957031 25.15625-13.097656 56.035156 5.519531 91.832031l-22.984375 215.214844 84.558594 84.558594c21.425781 5.820312 43.964844 8.941406 67.234375 8.941406 141.386719 0 256-114.613281 256-256zm0 0" fill="#901"/><path d="m373 201c50-92-27.5-130.5-117-130.5s-167 38.5-117 130.5l-22 206h278zm0 0" fill="#fff5cb"/><path d="m395 407h-139v-336.5c89.5 0 167 38.5 117 130.5zm0 0" fill="#ffe670"/><path d="m407.792969 418.5h-303.585938l22.984375-215.214844c-18.617187-35.796875-20.476562-66.675781-5.519531-91.832031 19.824219-33.335937 68.785156-52.453125 134.328125-52.453125s114.503906 19.117188 134.328125 52.453125c14.957031 25.15625 13.097656 56.035156-5.519531 91.832031zm-278-23h252.414062l-21.023437-196.84375 1.710937-3.148438c16.050781-29.53125 18.628907-53.855468 7.664063-72.296874-15.34375-25.804688-58.167969-41.210938-114.558594-41.210938s-99.214844 15.40625-114.558594 41.210938c-10.964844 18.4375-8.386718 42.765624 7.664063 72.296874l1.710937 3.148438zm0 0" fill="#ffb74f"/><path d="m384.808594 203.289062c18.621094-35.800781 20.480468-66.679687 5.519531-91.839843-19.828125-33.328125-68.789063-52.449219-134.328125-52.449219v23c56.390625 0 99.210938 15.410156 114.558594 41.210938 10.960937 18.4375 8.390625 42.769531-7.660156 72.300781l-1.71875 3.148437 21.03125 196.839844h-126.210938v23h151.789062zm0 0" fill="#ff8900"/></svg>